# xmcd
#
# Track frame offsets: 
#        150
#        41998
#        111106
#        233670
#
# Disc length: 4251 seconds
#
# Revision: 0
# Processed by: cddbd v1.5.2PL0 Copyright (c) Steve Scherf et al.
# Submitted via: ExactAudioCopy v0.99pb4
#
DISCID=2d109904
DTITLE=Allman Brothers Band - 1973-12-31 Live at the Cow Palace cd3
DYEAR=1973
DGENRE=Blues
TTITLE0=Linda Lou - Mary Lou
TTITLE1=Hideaway - You upset me
TTITLE2=Bo Diddley > Mountain Jam > Bo Didley
TTITLE3=Save my life
EXTD=
EXTT0=
EXTT1=
EXTT2=
EXTT3=
PLAYORDER=
